<mxfile host="app.diagrams.net" modified="2024-01-17T13:51:08.439Z" agent="Mozilla/5.0 (X11; Ubuntu; Linux x86_64; rv:121.0) Gecko/20100101 Firefox/121.0" version="22.1.21" etag="26qe0xzNibZt7pAd_SKg" type="github">
  <diagram name="Page-1" id="fpSFrH5SnlSoslGPmlSk">
    <mxGraphModel>
      <root>
        <mxCell id="0" />
        <mxCell id="1" parent="0" />
      </root>
    </mxGraphModel>
  </diagram>
</mxfile>
